<?xml version="1.0" standalone="no"?><!DOCTYPE svg PUBLIC "-//W3C//DTD SVG 1.1//EN" "http://www.w3.org/Graphics/SVG/1.1/DTD/svg11.dtd"><svg t="1540784646763" class="icon" style="" viewBox="0 0 1024 1024" version="1.1" xmlns="http://www.w3.org/2000/svg" p-id="1335" xmlns:xlink="http://www.w3.org/1999/xlink" width="20" height="20"><defs><style type="text/css"></style></defs><path d="M174.592 886.784c-9.216 0-18.944-3.584-26.112-10.752-14.336-14.336-14.336-37.376 0-51.712L823.296 149.504c14.336-14.336 37.376-14.336 51.712 0s14.336 37.376 0 51.712L200.192 876.032c-7.168 7.168-16.384 10.752-25.6 10.752z" fill="#ff6246" p-id="1336"></path><path d="M824.832 250.368c-9.216-22.016-25.088-40.448-46.08-53.76-34.816-21.504-77.312-24.576-114.176-7.168L382.464 305.152H263.168c-65.536 0-119.296 53.248-119.296 119.296v208.384c0 65.536 53.248 119.296 119.296 119.296h59.904m72.704-72.704c-2.048-0.512-4.096-0.512-6.144-0.512H263.168c-25.6 0-46.08-20.48-46.08-46.08V424.448c0-25.6 20.48-46.08 46.08-46.08h126.464c4.608 0 9.216-1.024 13.824-2.56l289.792-118.784c0.512-0.512 1.536-0.512 2.048-1.024 14.336-7.168 30.72-6.144 44.544 2.56 13.824 8.704 21.504 23.04 21.504 38.912v16.384m0 0l-365.568 365.568m365.568-262.144v342.016c0 16.384-7.68 30.208-21.504 38.912-13.824 8.704-29.696 9.728-44.544 2.56-0.512-0.512-1.536-0.512-2.048-1.024l-223.232-91.648-56.32 56.32 250.88 102.912c16.384 7.68 33.28 11.264 50.688 11.264 22.016 0 44.032-6.144 63.488-18.432 34.816-22.016 55.808-59.904 55.808-100.864V344.064" fill="#ff6246" p-id="1337"></path></svg>