<?xml version="1.0" standalone="no"?><!DOCTYPE svg PUBLIC "-//W3C//DTD SVG 1.1//EN" "http://www.w3.org/Graphics/SVG/1.1/DTD/svg11.dtd"><svg t="1532682813990" class="icon" style="" viewBox="0 0 1024 1024" version="1.1" xmlns="http://www.w3.org/2000/svg" p-id="1040" xmlns:xlink="http://www.w3.org/1999/xlink" width="64" height="64"><defs><style type="text/css"></style></defs><path d="M595.542646 38.565415l22.338954-22.338953a47.182769 47.182769 0 0 1 66.772677 0.047261l323.064123 323.064123a47.2064 47.2064 0 0 1 0.047262 66.780554l-22.331077 22.331077a39.384615 39.384615 0 0 0 0 55.697723l22.331077 22.331077c18.432 18.432 18.361108 48.364308-0.110277 66.843569l-434.333539 434.333539c-18.487138 18.487138-48.403692 18.550154-66.835692 0.110277l-22.338954-22.331077a39.384615 39.384615 0 0 0-55.689846 0l-22.338954 22.331077a47.182769 47.182769 0 0 1-66.772677-0.047262L16.273723 684.662154a47.2064 47.2064 0 0 1-0.047261-66.772677l22.338953-22.338954a39.384615 39.384615 0 0 0 0-55.689846L16.226462 517.513846c-18.424123-18.432-18.353231-48.364308 0.110276-66.843569l434.333539-434.333539C469.173169-2.1504 499.081846-2.205538 517.513846 16.226462l22.331077 22.338953a39.384615 39.384615 0 0 0 55.697723 0z m55.7056 55.689847c-46.143015 46.143015-120.958031 46.143015-167.101046 0L94.263138 484.155077c46.143015 46.143015 46.143015 120.950154 0 167.093169l278.488616 278.496492c46.143015-46.143015 120.958031-46.143015 167.093169 0l389.891939-389.891938c-46.143015-46.143015-46.143015-120.950154 0-167.093169L651.248246 94.263138zM437.681231 240.994462c6.151877-6.151877 16.131938-6.144 22.307446 0.031507l55.634708 55.634708c6.167631 6.167631 6.230646 16.116185 0.039384 22.307446l-33.429661 33.421785c-6.144 6.151877-16.131938 6.144-22.307446-0.031508l-55.634708-55.634708a15.738092 15.738092 0 0 1-0.031508-22.307446l33.421785-33.421784z m267.350646 267.342769c6.151877-6.144 16.131938-6.136123 22.315323 0.039384l55.626831 55.634708c6.175508 6.167631 6.230646 16.116185 0.039384 22.307446l-33.421784 33.429662c-6.151877 6.144-16.139815 6.144-22.315323-0.039385l-55.634708-55.634708a15.738092 15.738092 0 0 1-0.031508-22.307446l33.421785-33.421784z m-133.671385-133.671385c6.144-6.144 16.131938-6.144 22.307446 0.039385l55.634708 55.626831c6.167631 6.175508 6.222769 16.116185 0.031508 22.315323l-33.421785 33.421784c-6.144 6.144-16.131938 6.144-22.307446-0.031507l-55.634708-55.634708a15.738092 15.738092 0 0 1-0.039384-22.315323l33.429661-33.421785z" fill="#ff6246" p-id="1041"></path></svg>